<svg width="30" height="30" viewBox="0 0 30 30" fill="none" xmlns="http://www.w3.org/2000/svg">
<g clip-path="url(#clip0_77_6461)">
<path d="M14.9999 30C22.824 30 29.1666 23.6574 29.1666 15.8333C29.1666 8.0093 22.824 1.66666 14.9999 1.66666C7.17589 1.66666 0.833252 8.0093 0.833252 15.8333C0.833252 23.6574 7.17589 30 14.9999 30Z" fill="#F4900C"/>
<path d="M14.9999 28.3333C22.824 28.3333 29.1666 21.9907 29.1666 14.1667C29.1666 6.34263 22.824 0 14.9999 0C7.17589 0 0.833252 6.34263 0.833252 14.1667C0.833252 21.9907 7.17589 28.3333 14.9999 28.3333Z" fill="#FFCC4D"/>
<path d="M14.9999 26.6667C21.4432 26.6667 26.6666 21.4433 26.6666 15C26.6666 8.55668 21.4432 3.33334 14.9999 3.33334C8.5566 3.33334 3.33325 8.55668 3.33325 15C3.33325 21.4433 8.5566 26.6667 14.9999 26.6667Z" fill="#FFE8B6"/>
<path d="M14.9999 25.8333C21.4432 25.8333 26.6666 20.61 26.6666 14.1667C26.6666 7.72334 21.4432 2.5 14.9999 2.5C8.5566 2.5 3.33325 7.72334 3.33325 14.1667C3.33325 20.61 8.5566 25.8333 14.9999 25.8333Z" fill="#FFAC33"/>
<path d="M7.95239 9.04667C7.95239 8.5925 8.39823 8.41083 8.39823 8.41083L14.9632 5.3275L21.5907 8.41083C21.5907 8.41083 22.0474 8.5125 22.0474 9.05V9.58417H7.95239V9.04667Z" fill="#FFE8B6"/>
<path d="M21.6076 10.6967C21.6076 10.21 21.1868 9.81583 20.6684 9.81583H9.27428C8.75511 9.81583 8.39344 10.21 8.39344 10.6967C8.39344 11.0275 8.56344 11.3125 8.83428 11.4633V12.0183H10.5959V11.5775H12.3576V12.0183H14.1193V11.5775H15.8809V12.0183H17.6426V11.5775H19.4043V12.0183H21.1668V11.4408C21.4309 11.2842 21.6076 11.01 21.6076 10.6967ZM22.9284 20C22.9284 20.1753 22.8588 20.3434 22.7349 20.4673C22.611 20.5912 22.4429 20.6608 22.2676 20.6608H7.73261C7.55735 20.6608 7.38926 20.5912 7.26533 20.4673C7.1414 20.3434 7.07178 20.1753 7.07178 20C7.07178 19.8247 7.1414 19.6567 7.26533 19.5327C7.38926 19.4088 7.55735 19.3392 7.73261 19.3392H22.2684C22.6326 19.3392 22.9284 19.635 22.9284 20Z" fill="#F4900C"/>
<path d="M22.0476 10.1667C22.0476 10.2836 22.0011 10.3957 21.9185 10.4784C21.8358 10.5611 21.7237 10.6075 21.6067 10.6075H8.39258C8.28034 10.6006 8.17497 10.5511 8.09794 10.4692C8.02091 10.3873 7.97803 10.2791 7.97803 10.1667C7.97803 10.0542 8.02091 9.94601 8.09794 9.8641C8.17497 9.78218 8.28034 9.73273 8.39258 9.72583L21.6067 9.72833C21.6645 9.72811 21.7217 9.73928 21.7751 9.7612C21.8285 9.78312 21.8771 9.81536 21.9181 9.85607C21.959 9.89679 21.9915 9.94518 22.0137 9.99847C22.036 10.0518 22.0475 10.1089 22.0476 10.1667ZM10.1551 10.6783H19.8459V11.6667H10.1551V10.6783Z" fill="#F4900C"/>
<path d="M10.595 17.3575C10.595 17.8442 10.3317 18.2383 10.0075 18.2383H9.42002C9.09585 18.2383 8.83252 17.8442 8.83252 17.3575V10.6792C8.83252 10.1925 9.09585 9.79833 9.42002 9.79833H10.0075C10.3317 9.79833 10.595 10.1925 10.595 10.6792V17.3575ZM21.1667 17.3575C21.1667 17.8442 20.9042 18.2383 20.5792 18.2383H19.9917C19.6675 18.2383 19.4042 17.8442 19.4042 17.3575V10.6792C19.4042 10.1925 19.6667 9.79833 19.9917 9.79833H20.5792C20.9034 9.79833 21.1667 10.1925 21.1667 10.6792V17.3575ZM14.1192 17.3575C14.1192 17.8442 13.8559 18.2383 13.5317 18.2383H12.9442C12.62 18.2383 12.3567 17.8442 12.3567 17.3575V10.6792C12.3567 10.1925 12.62 9.79833 12.9442 9.79833H13.5317C13.8559 9.79833 14.1192 10.1925 14.1192 10.6792V17.3575ZM17.6425 17.3575C17.6425 17.8442 17.3792 18.2383 17.055 18.2383H16.4684C16.1442 18.2383 15.8809 17.8442 15.8809 17.3575V10.6792C15.8809 10.1925 16.1442 9.79833 16.4684 9.79833H17.055C17.3792 9.79833 17.6425 10.1925 17.6425 10.6792V17.3575Z" fill="#FFD983"/>
<path d="M21.6075 17.7975C21.6075 18.2842 21.2133 18.6783 20.7266 18.6783H9.27414C9.04053 18.6783 8.81649 18.5855 8.6513 18.4203C8.48611 18.2552 8.39331 18.0311 8.39331 17.7975C8.39331 17.5639 8.48611 17.3398 8.6513 17.1747C8.81649 17.0095 9.04053 16.9167 9.27414 16.9167H20.7266C21.2125 16.9167 21.6075 17.3108 21.6075 17.7975Z" fill="#FFCC4D"/>
<path d="M22.4884 18.6783C22.4884 19.165 22.0942 19.5592 21.6076 19.5592H8.39255C8.15894 19.5592 7.9349 19.4664 7.76971 19.3012C7.60452 19.136 7.51172 18.9119 7.51172 18.6783C7.51172 18.4447 7.60452 18.2207 7.76971 18.0555C7.9349 17.8903 8.15894 17.7975 8.39255 17.7975H21.6067C22.0934 17.7975 22.4884 18.1917 22.4884 18.6783Z" fill="#FFD983"/>
<path d="M22.9284 19.3392C22.9284 19.5144 22.8588 19.6825 22.7349 19.8064C22.611 19.9304 22.4429 20 22.2676 20H7.73261C7.64583 20 7.5599 19.9829 7.47972 19.9497C7.39954 19.9165 7.3267 19.8678 7.26533 19.8064C7.20397 19.7451 7.15529 19.6722 7.12208 19.5921C7.08887 19.5119 7.07178 19.4259 7.07178 19.3392C7.07178 19.2524 7.08887 19.1664 7.12208 19.0863C7.15529 19.0061 7.20397 18.9332 7.26533 18.8719C7.3267 18.8105 7.39954 18.7618 7.47972 18.7286C7.5599 18.6954 7.64583 18.6783 7.73261 18.6783H22.2684C22.6326 18.6783 22.9284 18.9742 22.9284 19.3392Z" fill="#FFD983"/>
<path d="M21.6075 10.2383C21.6075 9.75166 21.1866 9.3575 20.6683 9.3575H9.27414C8.75498 9.3575 8.39331 9.75166 8.39331 10.2383C8.39331 10.5692 8.56331 10.8542 8.83414 11.005V11.56H10.5958V11.1192H12.3575V11.56H14.1191V11.1192H15.8808V11.56H17.6425V11.1192H19.4041V11.56H21.1666V10.9825C21.4308 10.8258 21.6075 10.5517 21.6075 10.2383Z" fill="#FFCC4D"/>
<path d="M7.95239 9.5525C7.95239 9.09834 8.39823 8.91667 8.39823 8.91667L14.9632 5.83334L21.5907 8.91667C21.5907 8.91667 22.0474 9.01834 22.0474 9.55584V9.79834H7.95239V9.5525Z" fill="#FFD983"/>
<path d="M15 6.9525C15 6.9525 10.4542 9.095 10.0008 9.28833C9.54666 9.48083 9.69832 9.7975 10.0017 9.7975H19.9767C20.445 9.7975 20.3342 9.44 19.9625 9.24667C19.5908 9.05417 15 6.9525 15 6.9525Z" fill="#FFAC33"/>
<path d="M22.0476 9.7975C22.0476 9.91442 22.0011 10.0265 21.9185 10.1092C21.8358 10.1919 21.7237 10.2383 21.6067 10.2383H8.39258C8.28034 10.2314 8.17497 10.182 8.09794 10.1001C8.02091 10.0182 7.97803 9.90994 7.97803 9.7975C7.97803 9.68506 8.02091 9.57685 8.09794 9.49493C8.17497 9.41302 8.28034 9.36357 8.39258 9.35667L21.6067 9.35917C21.6645 9.35895 21.7217 9.37012 21.7751 9.39204C21.8285 9.41396 21.8771 9.4462 21.9181 9.48691C21.959 9.52762 21.9915 9.57601 22.0137 9.62931C22.036 9.6826 22.0475 9.73976 22.0476 9.7975Z" fill="#FFD983"/>
</g>
<defs>
<clipPath id="clip0_77_6461">
<rect width="30" height="30" fill="white"/>
</clipPath>
</defs>
</svg>
