<svg width="35" height="30" viewBox="0 0 35 30" fill="none" xmlns="http://www.w3.org/2000/svg">
<path d="M14 21.6667V20H1.7675L1.75 26.6667C1.75 28.5167 3.3075 30 5.25 30H29.75C31.6925 30 33.25 28.5167 33.25 26.6667V20H21V21.6667H14ZM31.5 6.66667H24.4825V3.33333L20.9825 0H13.9825L10.4825 3.33333V6.66667H3.5C1.575 6.66667 0 8.16667 0 10V15C0 16.85 1.5575 18.3333 3.5 18.3333H14V15H21V18.3333H31.5C33.425 18.3333 35 16.8333 35 15V10C35 8.16667 33.425 6.66667 31.5 6.66667ZM21 6.66667H14V3.33333H21V6.66667Z" fill="white"/>
</svg>
