<svg width="28" height="29" viewBox="0 0 28 29" fill="none" xmlns="http://www.w3.org/2000/svg">
<path d="M5.005 0.10405C5.18324 0.189752 5.33365 0.324052 5.43892 0.491485C5.54418 0.658918 5.60002 0.852677 5.6 1.05045C5.6 2.21245 6.0368 2.88165 6.5842 3.69645L6.6248 3.75525C7.0896 4.44685 7.7 5.35265 7.7 6.65045C7.7 7.97485 7.0322 9.14245 6.0144 9.83545C6.2818 10.0594 6.5184 10.3352 6.7228 10.6656C7.3892 11.7436 7.7 13.3914 7.7 15.7574C7.7 18.1542 7.378 21.0326 6.853 23.3314C6.5926 24.4739 6.2692 25.528 5.8842 26.319C5.6924 26.7124 5.4586 27.096 5.1702 27.397C4.8818 27.6924 4.438 28.0074 3.85 28.0074C3.262 28.0074 2.8182 27.6924 2.5312 27.397C2.2389 27.0768 1.99803 26.7131 1.8172 26.319C1.4308 25.5266 1.1074 24.4738 0.847001 23.33C0.300926 20.8419 0.0170435 18.3034 1.34891e-06 15.756C1.34891e-06 13.39 0.310801 11.7436 0.977201 10.6656C1.16732 10.3527 1.4065 10.0724 1.6856 9.83545C1.16588 9.4826 0.740513 9.00781 0.446674 8.45259C0.152835 7.89737 -0.000524728 7.27863 1.34891e-06 6.65045C1.34891e-06 6.13525 1.20997e-06 5.24905 0.536201 4.10525C1.0612 2.98525 2.0594 1.69865 3.8934 0.230051C4.04797 0.106408 4.23434 0.0289752 4.43102 0.00668163C4.6277 -0.015612 4.82668 0.0181417 5.005 0.10405Z" fill="white"/>
<path d="M11.2001 18.0842C10.4583 17.9598 9.73687 17.7357 9.05525 17.4178C9.08465 16.8494 9.10005 16.2922 9.10005 15.7574C9.10005 15.189 9.08325 14.6458 9.04685 14.1278C9.66705 14.6388 10.3993 15.0182 11.2001 15.224V11.9004C11.2001 11.3435 11.4213 10.8093 11.8151 10.4155C12.209 10.0217 12.7431 9.80043 13.3001 9.80043H18.2001C18.2002 8.73223 17.8948 7.68627 17.3199 6.78595C16.745 5.88564 15.9246 5.16852 14.9555 4.71921C13.9864 4.26991 12.909 4.10715 11.8504 4.25014C10.7918 4.39313 9.79623 4.83591 8.98105 5.52623C8.73885 4.38663 8.17605 3.55223 7.81625 3.01883L7.76025 2.93483C9.01809 2.04814 10.4954 1.52403 12.0308 1.41974C13.5662 1.31544 15.1008 1.63495 16.4669 2.34341C17.8331 3.05186 18.9785 4.12201 19.7779 5.43705C20.5773 6.75209 21.0001 8.26148 21.0001 9.80043H25.9001C26.457 9.80043 26.9912 10.0217 27.385 10.4155C27.7788 10.8093 28.0001 11.3435 28.0001 11.9004V24.5004C28.0001 25.0574 27.7788 25.5915 27.385 25.9854C26.9912 26.3792 26.457 26.6004 25.9001 26.6004H13.3001C12.7431 26.6004 12.209 26.3792 11.8151 25.9854C11.4213 25.5915 11.2001 25.0574 11.2001 24.5004V18.0842ZM14.0001 18.0842V23.8004H25.2001V12.6004H20.5227C20.0222 14.0127 19.1536 15.2657 18.0066 16.2298C16.8596 17.1939 15.476 17.8341 13.9987 18.0842H14.0001ZM17.4511 12.6004H14.0001V15.224C14.7205 15.0374 15.3967 14.7094 15.9891 14.259C16.5816 13.8085 17.0786 13.2448 17.4511 12.6004Z" fill="white"/>
</svg>
