<svg width="30" height="29" viewBox="0 0 30 29" fill="none" xmlns="http://www.w3.org/2000/svg">
<path d="M25 0H29V4H25V0Z" fill="white"/>
<path d="M25 6H29V10H25V6Z" fill="white"/>
<path d="M19 0H23V4H19V0Z" fill="white"/>
<path d="M19 6H23V10H19V6Z" fill="white"/>
<path d="M27 13.75H26.75V14V19.75H3.25V4.25H15H15.25V4V2V1.75H15H3C2.40326 1.75 1.83097 1.98705 1.40901 2.40901C0.987053 2.83097 0.75 3.40326 0.75 4V20C0.75 20.5967 0.987053 21.169 1.40901 21.591C1.83097 22.0129 2.40326 22.25 3 22.25H10.75V25.75H7H6.75V26V28V28.25H7H23H23.25V28V26V25.75H23H19.25V22.25H27C27.5967 22.25 28.169 22.0129 28.591 21.591C29.0129 21.169 29.25 20.5967 29.25 20V14V13.75H29H27ZM13.25 25.75V22.25H16.75V25.75H13.25Z" fill="white" stroke="white" stroke-width="0.5"/>
</svg>
