<svg width="37" height="35" viewBox="0 0 37 35" fill="none" xmlns="http://www.w3.org/2000/svg">
<path d="M33.4194 0H14.3226V5.96774H16.7097V2.3871H33.4194C34.1355 2.3871 34.6129 2.86452 34.6129 3.58065V16.7097C34.6129 17.4258 34.1355 17.9032 33.4194 17.9032H17.9032V26.2581H11.5774L7.16129 29.7194V26.2581H3.58065C2.86452 26.2581 2.3871 25.7806 2.3871 25.0645V11.9355C2.3871 11.2194 2.86452 10.7419 3.58065 10.7419H19.0968V8.35484H3.58065C1.55161 8.35484 0 9.90645 0 11.9355V25.0645C0 27.0935 1.55161 28.6452 3.58065 28.6452H4.77419V34.7323L12.2935 28.6452H20.2903V20.2903H33.4194C35.4484 20.2903 37 18.7387 37 16.7097V3.58065C37 1.55161 35.4484 0 33.4194 0Z" fill="white"/>
<path d="M5.0127 23.7516H7.87721L8.59334 21.842H12.2933L13.0095 23.7516H15.874L11.8159 13.1291H8.95141L5.0127 23.7516ZM10.3837 16.1129L11.5772 19.8129H9.19011L10.3837 16.1129Z" fill="white"/>
<path d="M21.4839 16.7097C22.7968 16.7097 24.5871 16.3516 26.2581 15.5161C27.929 16.3516 29.8387 16.7097 31.0323 16.7097V14.3226C31.0323 14.3226 29.8387 14.3226 28.5258 13.8451C29.9581 12.4129 31.0323 10.2645 31.0323 7.16127V5.96772H27.4516V3.58063H25.0645V5.96772H21.4839V8.35482H28.5258C28.2871 10.5032 27.3323 11.8161 26.2581 12.6516C25.542 12.0548 24.8258 11.2193 24.3484 10.1451H21.842C22.3194 11.6968 23.0355 12.8903 23.9903 13.8451C22.7968 14.3226 21.7226 14.3226 21.4839 14.3226V16.7097Z" fill="white"/>
</svg>
