<svg width="35" height="28" viewBox="0 0 35 28" fill="none" xmlns="http://www.w3.org/2000/svg">
<path d="M33 4.2963C33 3.68728 32.755 3.10321 32.319 2.67257C31.883 2.24193 31.2916 2 30.675 2H4.325C3.70837 2 3.117 2.24193 2.68098 2.67257C2.24495 3.10321 2 3.68728 2 4.2963V11.1852H33V4.2963Z" stroke="white" stroke-width="2.5" stroke-linecap="round" stroke-linejoin="round"/>
<path d="M2 24.963L11.3861 16.2924L16.4583 20.7334L22.6576 15.7778L26.1111 18.8569" stroke="white" stroke-width="2.5" stroke-linecap="round" stroke-linejoin="round"/>
<path d="M33 8.88889V23.7626C33 24.3855 32.7619 24.9828 32.338 25.4233C31.9141 25.8637 31.3391 26.1111 30.7396 26.1111H8.88892" stroke="white" stroke-width="2.5" stroke-linecap="round" stroke-linejoin="round"/>
<path d="M13.4814 6.59259H27.2592" stroke="white" stroke-width="2.5" stroke-linecap="round" stroke-linejoin="round"/>
<path d="M7.74072 6.59259H8.88887" stroke="white" stroke-width="2.5" stroke-linecap="round" stroke-linejoin="round"/>
<path d="M2 8.88889V15.7778" stroke="white" stroke-width="2.5" stroke-linecap="round" stroke-linejoin="round"/>
</svg>
