<svg width="29" height="31" viewBox="0 0 29 31" fill="none" xmlns="http://www.w3.org/2000/svg">
<path d="M6.74984 25.0856C9.96692 25.0856 12.5832 22.4694 12.5832 19.2523V4.45749L25.7082 9.22916V20.0646C24.8257 19.5388 23.8187 19.2583 22.7915 19.2523C19.5744 19.2523 16.9582 21.8685 16.9582 25.0856C16.9582 28.3027 19.5744 30.9189 22.7915 30.9189C26.0086 30.9189 28.6248 28.3027 28.6248 25.0856V8.20833C28.625 7.90912 28.533 7.61711 28.3613 7.37208C28.1896 7.12704 27.9466 6.94088 27.6653 6.83895L11.6236 1.00562C11.4034 0.925113 11.167 0.89895 10.9345 0.929352C10.702 0.959753 10.4803 1.04582 10.2882 1.18024C10.096 1.31467 9.93921 1.49347 9.83098 1.70147C9.72276 1.90947 9.66633 2.14052 9.6665 2.37499V14.2312C8.78402 13.7054 7.77707 13.425 6.74984 13.4189C3.53275 13.4189 0.916504 16.0352 0.916504 19.2523C0.916504 22.4694 3.53275 25.0856 6.74984 25.0856Z" fill="white"/>
</svg>
