<svg width="33" height="25" viewBox="0 0 33 25" fill="none" xmlns="http://www.w3.org/2000/svg">
<path d="M21.6562 13.4062C21.6562 14.7738 21.113 16.0853 20.146 17.0523C19.179 18.0193 17.8675 18.5625 16.5 18.5625C15.1325 18.5625 13.821 18.0193 12.854 17.0523C11.887 16.0853 11.3438 14.7738 11.3438 13.4062C11.3438 12.0387 11.887 10.7272 12.854 9.76023C13.821 8.79325 15.1325 8.25 16.5 8.25C17.8675 8.25 19.179 8.79325 20.146 9.76023C21.113 10.7272 21.6562 12.0387 21.6562 13.4062Z" fill="white"/>
<path d="M4.125 4.125C3.03098 4.125 1.98177 4.5596 1.20818 5.33318C0.434597 6.10677 0 7.15598 0 8.25L0 20.625C0 21.719 0.434597 22.7682 1.20818 23.5418C1.98177 24.3154 3.03098 24.75 4.125 24.75H28.875C29.969 24.75 31.0182 24.3154 31.7918 23.5418C32.5654 22.7682 33 21.719 33 20.625V8.25C33 7.15598 32.5654 6.10677 31.7918 5.33318C31.0182 4.5596 29.969 4.125 28.875 4.125H26.4578C25.3638 4.12477 24.3148 3.69002 23.5414 2.91638L21.8336 1.20862C21.0602 0.434984 20.0112 0.000233629 18.9172 0H14.0828C12.9888 0.000233629 11.9398 0.434984 11.1664 1.20862L9.45862 2.91638C8.68522 3.69002 7.63618 4.12477 6.54225 4.125H4.125ZM5.15625 8.25C4.88275 8.25 4.62044 8.14135 4.42705 7.94795C4.23365 7.75456 4.125 7.49225 4.125 7.21875C4.125 6.94525 4.23365 6.68294 4.42705 6.48955C4.62044 6.29615 4.88275 6.1875 5.15625 6.1875C5.42975 6.1875 5.69206 6.29615 5.88545 6.48955C6.07885 6.68294 6.1875 6.94525 6.1875 7.21875C6.1875 7.49225 6.07885 7.75456 5.88545 7.94795C5.69206 8.14135 5.42975 8.25 5.15625 8.25ZM23.7188 13.4062C23.7188 15.3208 22.9582 17.1569 21.6044 18.5107C20.2506 19.8645 18.4145 20.625 16.5 20.625C14.5855 20.625 12.7494 19.8645 11.3956 18.5107C10.0418 17.1569 9.28125 15.3208 9.28125 13.4062C9.28125 11.4917 10.0418 9.6556 11.3956 8.30182C12.7494 6.94805 14.5855 6.1875 16.5 6.1875C18.4145 6.1875 20.2506 6.94805 21.6044 8.30182C22.9582 9.6556 23.7188 11.4917 23.7188 13.4062Z" fill="white"/>
</svg>
