<svg width="30" height="31" viewBox="0 0 30 31" fill="none" xmlns="http://www.w3.org/2000/svg">
<path d="M15 0.875C6.8685 0.875 0 7.7435 0 15.875C0 24.0065 6.8685 30.875 15 30.875C23.1315 30.875 30 24.0065 30 15.875C30 7.7435 23.1315 0.875 15 0.875ZM15 8.375C17.5905 8.375 19.5 10.283 19.5 12.875C19.5 15.467 17.5905 17.375 15 17.375C12.411 17.375 10.5 15.467 10.5 12.875C10.5 10.283 12.411 8.375 15 8.375ZM7.341 23.033C8.6865 21.053 10.9305 19.733 13.5 19.733H16.5C19.071 19.733 21.3135 21.053 22.659 23.033C20.742 25.085 18.0225 26.375 15 26.375C11.9775 26.375 9.258 25.085 7.341 23.033Z" fill="#004AAD"/>
</svg>
