<svg width="30" height="29" viewBox="0 0 30 29" fill="none" xmlns="http://www.w3.org/2000/svg">
<path d="M26.829 6.00016H23.5797C23.7437 5.53519 23.848 5.02521 23.848 4.50024C23.8496 3.53253 23.5408 2.59015 22.9674 1.81328C22.394 1.03641 21.5867 0.466551 20.6656 0.188481C19.7446 -0.0895889 18.7589 -0.0610177 17.8552 0.269945C16.9516 0.600907 16.1782 1.21658 15.6502 2.02538L14.905 3.03032L14.1597 2.01038C13.3549 0.81044 11.9985 0.000483456 10.4335 0.000483456C7.95927 0.000483456 5.962 2.01038 5.962 4.50024C5.962 5.02521 6.06633 5.53519 6.23029 6.00016H2.981C1.32654 6.00016 0.014905 7.33509 0.014905 9L0 25.4991C0 27.164 1.32654 28.499 2.981 28.499H26.829C28.4835 28.499 29.81 27.164 29.81 25.4991V9C29.81 7.33509 28.4835 6.00016 26.829 6.00016ZM19.3765 3.00032C20.1963 3.00032 20.867 3.67529 20.867 4.50024C20.867 5.3252 20.1963 6.00016 19.3765 6.00016C18.5567 6.00016 17.886 5.3252 17.886 4.50024C17.886 3.67529 18.5567 3.00032 19.3765 3.00032ZM10.4335 3.00032C11.2533 3.00032 11.924 3.67529 11.924 4.50024C11.924 5.3252 11.2533 6.00016 10.4335 6.00016C9.61372 6.00016 8.943 5.3252 8.943 4.50024C8.943 3.67529 9.61372 3.00032 10.4335 3.00032ZM25.3385 25.4991H4.4715C3.65172 25.4991 2.981 24.8242 2.981 23.9992V22.4993H26.829V23.9992C26.829 24.8242 26.1583 25.4991 25.3385 25.4991ZM26.829 17.9995H2.981V10.4999C2.981 9.67497 3.65172 9 4.4715 9H10.5527L8.3468 12.0298C8.22995 12.1889 8.14567 12.3697 8.09888 12.5618C8.05208 12.7539 8.04369 12.9534 8.0742 13.1488C8.10471 13.3442 8.17351 13.5315 8.2766 13.6999C8.37969 13.8683 8.51502 14.0144 8.67471 14.1297C9.33053 14.6097 10.2695 14.4597 10.7465 13.7997L14.905 8.10005L19.0635 13.7997C19.5405 14.4597 20.4795 14.6097 21.1353 14.1297C21.806 13.6498 21.9551 12.7048 21.4632 12.0298L19.2573 9H25.3385C26.1583 9 26.829 9.67497 26.829 10.4999V17.9995Z" fill="#C2C5CC"/>
</svg>
