<svg width="32" height="33" viewBox="0 0 32 33" fill="none" xmlns="http://www.w3.org/2000/svg">
<path d="M20.1216 11.4507V0H22.4117V11.4507H20.1216Z" fill="white"/>
<path d="M24.7019 11.4507V0H26.992V11.4507H24.7019Z" fill="white"/>
<path d="M29.2822 11.4507V0H31.5724V11.4507H29.2822Z" fill="white"/>
<path d="M15.5413 20.6113C14.9361 20.6251 14.3343 20.516 13.7724 20.2907C13.2104 20.0654 12.7 19.7285 12.2719 19.3004C11.8438 18.8723 11.5069 18.3619 11.2816 17.8C11.0563 17.238 10.9473 16.6363 10.961 16.031C10.9473 15.4257 11.0563 14.824 11.2816 14.262C11.5069 13.7001 11.8438 13.1897 12.2719 12.7616C12.7 12.3335 13.2104 11.9966 13.7724 11.7713C14.3343 11.546 14.9361 11.4369 15.5413 11.4507V9.16057C14.1825 9.16057 12.8542 9.56351 11.7243 10.3184C10.5945 11.0734 9.71389 12.1464 9.19388 13.4018C8.67388 14.6572 8.53782 16.0386 8.80291 17.3713C9.06801 18.7041 9.72236 19.9283 10.6832 20.8891C11.644 21.85 12.8682 22.5043 14.201 22.7694C15.5337 23.0345 16.9151 22.8984 18.1705 22.3784C19.4259 21.8584 20.4989 20.9778 21.2539 19.848C22.0088 18.7182 22.4118 17.3898 22.4118 16.031H20.1216C20.1354 16.6363 20.0263 17.238 19.801 17.8C19.5757 18.3619 19.2388 18.8723 18.8108 19.3004C18.3827 19.7285 17.8722 20.0654 17.3103 20.2907C16.7484 20.516 16.1466 20.6251 15.5413 20.6113Z" fill="white"/>
<path d="M30.3048 18.841L27.1043 16.031L25.5951 17.7532L28.7922 20.5609L26.0898 25.2419L22.1656 23.9137C21.242 24.6875 20.1903 25.294 19.0579 25.7057L18.2438 29.7718H12.839L12.026 25.7068C10.9014 25.2891 9.85735 24.6801 8.94006 23.9068L4.993 25.2419L2.29063 20.5609L5.41095 17.8184C5.19747 16.6343 5.19476 15.4218 5.40294 14.2367L2.29063 11.4999L4.993 6.82004L8.91716 8.14832C9.841 7.37395 10.8931 6.76708 12.026 6.35514L12.839 2.29014H15.5414V0H12.839C12.3096 5.50061e-05 11.7965 0.183541 11.3871 0.51924C10.9778 0.854939 10.6973 1.32211 10.5935 1.84127L10.0164 4.72456C9.49049 4.97672 8.98276 5.26521 8.49692 5.58795L5.72585 4.65013C5.22445 4.48036 4.6797 4.48971 4.18443 4.67658C3.68915 4.86346 3.27401 5.2163 3.00974 5.67497L0.307372 10.356C0.0426442 10.8144 -0.0551344 11.3503 0.0306659 11.8726C0.116466 12.3949 0.380547 12.8714 0.777996 13.221L2.98913 15.1642C2.96966 15.4527 2.94562 15.739 2.94562 16.031C2.94562 16.3264 2.95707 16.6184 2.97768 16.9081L0.779141 18.841C0.381322 19.1903 0.116801 19.6666 0.030581 20.1889C-0.0556392 20.7113 0.0417663 21.2474 0.306227 21.706L3.00859 26.387C3.27295 26.8462 3.68848 27.1994 4.18425 27.3863C4.68002 27.5732 5.2253 27.5822 5.72699 27.4119L8.51409 26.4683C8.99424 26.7923 9.49622 27.0827 10.0164 27.3374L10.5924 30.2207C10.6962 30.7401 10.9768 31.2074 11.3864 31.5431C11.7961 31.8788 12.3094 32.0622 12.839 32.062H18.2438C18.7732 32.0619 19.2863 31.8784 19.6956 31.5427C20.105 31.207 20.3855 30.7399 20.4892 30.2207L21.0664 27.3363C21.5923 27.0845 22.1 26.7964 22.5859 26.474L25.3558 27.4107C25.8572 27.5809 26.4021 27.5719 26.8976 27.3852C27.3931 27.1985 27.8086 26.8457 28.0731 26.387L30.7754 21.706C31.0401 21.2476 31.1379 20.7117 31.0521 20.1894C30.9663 19.6671 30.7022 19.1906 30.3048 18.841Z" fill="white"/>
</svg>
