<svg width="225" height="246" viewBox="0 0 225 246" fill="none" xmlns="http://www.w3.org/2000/svg">
<path d="M105.739 158.207C108.079 166.246 109.249 170.265 111.5 170.265C113.751 170.265 114.921 166.246 117.261 158.207L135.68 94.9268C136.704 91.408 137.216 89.6487 136.316 88.4493C135.416 87.25 133.583 87.25 129.919 87.25H93.0818C89.417 87.25 87.5846 87.25 86.6846 88.4493C85.7846 89.6487 86.2966 91.408 87.3208 94.9268L105.739 158.207Z" fill="#004AAD"/>
<path d="M138 42.5C138 57.1355 126.583 69 112.5 69C96.0003 67 85.4999 52 89.5 36.5C115.5 44.5 105 9.5 112.5 0C126.583 0 138 27.8645 138 42.5Z" fill="#EDB426"/>
<path d="M142.947 167.249C146.401 166.21 149.676 164.847 152.77 163.25C152.808 163.167 152.846 163.08 152.924 162.994L152.961 162.952C152.844 157.265 156.949 151.122 160.756 147.218C161.268 146.697 162.433 146.927 162.395 147.794C162.048 152.433 160.42 157.01 157.466 160.58C162.664 157.311 167.29 153.281 171.47 148.658C171.382 148.541 171.335 148.379 171.327 148.212C171.091 144.389 171.442 140.659 172.578 136.974C173.395 134.332 174.457 130.857 176.942 129.37C177.501 129.055 178.222 129.391 178.253 130.05C178.559 134.53 177.84 139.062 175.978 143.115C176.675 142.213 177.333 141.272 177.987 140.333C182.136 134.267 185.809 127.69 188.728 120.862C188.682 120.781 188.633 120.661 188.668 120.534C188.703 120.408 188.698 120.284 188.734 120.161C188.607 120.126 188.437 120.05 188.346 119.892C183.927 114.008 184.133 104.922 185.645 98.0829C185.812 97.2899 186.839 97.1968 187.282 97.7939C191.346 103.119 191.704 109.453 190.778 115.686C192.699 110.432 194.118 105.001 194.914 99.4734C195.253 97.1462 195.465 94.8288 195.516 92.5586C195.396 92.5625 195.23 92.5302 195.099 92.4519C188.866 89.0954 185.087 81.1181 183.803 74.4577C183.634 73.6011 184.543 72.8117 185.32 73.477C189.72 77.2965 193.255 81.9463 195.461 87.2798C194.905 78.6855 192.473 70.5169 188.706 62.8275C188.588 62.9603 188.386 63.0509 188.183 63.0609C181.088 63.0855 174.066 57.2104 170.202 51.7105C169.757 51.0737 170.412 50.0934 171.164 50.3043C176.395 51.7741 181.251 54.0035 185.617 57.1687C181.38 49.9572 176.092 43.2494 170.256 37.1498L170.216 37.1523C166.633 35.5971 162.485 34.363 159.507 31.7477C156.959 29.4823 155.48 26.2998 154.051 23.2775C153.589 22.3093 154.797 21.7148 155.559 22.1293C155.64 22.0834 155.683 22.0798 155.807 22.0749C158.995 22.2885 161.852 23.3832 164.269 25.4896C166.901 27.8294 168.264 31.1039 170.263 33.9327C174.729 38.2845 178.849 43.1538 182.496 48.3721C181.125 40.813 179.441 32.7313 181.044 25.144C181.242 24.2253 182.356 24.1696 182.841 24.8039C188.743 32.265 189.913 43.2586 184.5 51.3251C188.478 57.4778 191.703 64.1236 193.897 70.9402C193.914 67.9713 194.014 65.037 194.197 62.1003C194.307 60.1541 193.701 56.3088 195.321 54.8678C195.635 54.5612 196.084 54.457 196.466 54.6458C203.038 58.1908 201.016 73.0604 195.675 76.7926C195.638 76.8349 195.595 76.8385 195.514 76.8399C196.729 82.1437 197.327 87.5156 197.147 92.9708L197.15 93.0105C197.152 93.0948 197.157 93.1743 197.12 93.2612C197.053 95.2 196.9 97.1053 196.627 99.0589C196.448 100.429 196.186 101.761 195.921 103.094C197.279 100.51 199.004 97.9084 200.621 95.6431C202.511 92.9895 204.797 90.8523 207.965 89.8296C208.696 89.5852 209.301 90.2155 209.218 90.9617C208.025 98.4474 202.75 105.187 195.443 107.574C195.242 107.623 195.075 107.591 194.946 107.517C193.052 114.996 190.12 122.317 186.504 129.182C188.042 127.783 189.67 126.506 191.431 125.427C193.789 123.95 197.1 121.68 199.985 122.444C200.488 122.584 200.885 123.1 200.744 123.599C198.691 131.21 191.279 136.407 183.436 134.695L183.396 134.698C181.838 137.335 180.15 139.895 178.414 142.333C175.682 146.22 172.571 150.005 169.112 153.44C173.521 150.908 179.173 150.089 183.933 150.346C184.718 150.39 185.257 151.269 184.67 151.916C179.781 157.278 172.066 159.725 165.06 157.396C164.977 157.358 164.935 157.321 164.892 157.28C158.595 162.546 151.326 166.54 143.155 168.103C142.669 168.294 142.336 167.445 142.947 167.249ZM163.331 27.3503C163.468 27.5886 163.559 27.7908 163.696 28.033C163.997 28.2639 164.298 28.4985 164.598 28.7702C164.2 28.2538 163.766 27.7798 163.331 27.3503Z" fill="#004AAD"/>
<path d="M80.9639 167.559C77.5175 166.493 74.2513 165.107 71.1675 163.484C71.1343 163.398 71.0962 163.315 71.0185 163.229L70.9815 163.187C71.1451 157.498 67.089 151.321 63.3117 147.387C62.8065 146.865 61.6372 147.084 61.6706 147.956C61.9796 152.595 63.5699 157.184 66.4958 160.78C61.3227 157.465 56.7305 153.402 52.583 148.748C52.6755 148.631 52.7245 148.466 52.7328 148.303C52.9985 144.48 52.6767 140.748 51.5714 137.053C50.7752 134.406 49.7384 130.921 47.2661 129.416C46.7091 129.098 45.9875 129.427 45.9497 130.085C45.6064 134.563 46.2919 139.099 48.1218 143.165C47.4296 142.26 46.7846 141.314 46.1358 140.368C42.0335 134.272 38.4111 127.663 35.5511 120.813C35.5964 120.737 35.6427 120.612 35.6074 120.489C35.5769 120.363 35.5824 120.239 35.5482 120.112C35.6749 120.078 35.8442 120.007 35.9367 119.846C40.4031 113.999 40.2671 104.912 38.8087 98.0597C38.6485 97.2669 37.6234 97.1653 37.1738 97.7593C33.07 103.049 32.6614 109.384 33.5378 115.624C31.655 110.356 30.282 104.912 29.5288 99.3779C29.2081 97.0513 29.0125 94.7264 28.9797 92.458C29.1037 92.4635 29.2702 92.432 29.3997 92.358C35.6595 89.0495 39.5047 81.1017 40.8375 74.4524C41.0103 73.5966 40.11 72.8002 39.3274 73.4572C34.8967 77.2447 31.3285 81.8627 29.0795 87.1809C29.7023 78.5927 32.1977 70.4426 36.0244 62.7854C36.1429 62.9149 36.3436 63.0102 36.5471 63.0212C43.6431 63.1031 50.7063 57.2807 54.6159 51.8124C55.0645 51.1776 54.4185 50.1915 53.6664 50.3952C48.4258 51.8238 43.5506 54.0201 39.1587 57.146C43.4536 49.9688 48.7951 43.304 54.674 37.2515L54.7186 37.2515C58.3134 35.7261 62.4679 34.5236 65.4668 31.9326C68.0308 29.6886 69.5363 26.516 70.9891 23.5072C71.4589 22.5421 70.2551 21.9383 69.4921 22.3455C69.4116 22.2993 69.367 22.2993 69.2441 22.29C66.0551 22.4766 63.1874 23.5485 60.7556 25.6342C58.1045 27.9597 56.7165 31.221 54.6975 34.0348C50.1947 38.3533 46.0372 43.1871 42.3486 48.3797C43.7784 40.8255 45.5262 32.7589 43.9843 25.1591C43.7899 24.2396 42.6816 24.176 42.1895 24.807C36.2312 32.2186 34.9742 43.2049 40.3213 51.3127C36.2945 57.4333 33.0216 64.0553 30.7693 70.8545C30.778 67.8849 30.6997 64.9522 30.5381 62.013C30.4452 60.0684 31.081 56.2252 29.4737 54.7703C29.161 54.4622 28.7122 54.3559 28.3301 54.5392C21.7318 58.0347 23.635 72.9162 28.9451 76.6935C28.9821 76.736 29.0256 76.7398 29.1061 76.7415C27.8517 82.0356 27.2089 87.4033 27.3478 92.8589L27.345 92.8987C27.3385 92.9819 27.3368 93.0624 27.37 93.1484C27.4232 95.0903 27.5633 96.9952 27.8189 98.9518C27.9876 100.322 28.2386 101.658 28.4943 102.991C27.1568 100.399 25.4542 97.7801 23.8532 95.5009C21.9847 92.8368 19.714 90.6826 16.5553 89.6303C15.8291 89.3835 15.213 90.009 15.2927 90.7555C16.4266 98.2481 21.6495 105.03 28.9345 107.476C29.139 107.528 29.3055 107.496 29.4351 107.422C31.2702 114.912 34.1442 122.26 37.7055 129.151C36.1787 127.743 34.5632 126.451 32.8079 125.361C30.4596 123.862 27.1703 121.567 24.2793 122.309C23.7733 122.442 23.3738 122.956 23.508 123.459C25.5004 131.084 32.873 136.34 40.7291 134.689L40.7689 134.692C42.3098 137.34 43.9765 139.912 45.6922 142.364C48.3944 146.276 51.4769 150.086 54.9061 153.544C50.5157 150.981 44.8684 150.116 40.1114 150.337C39.3241 150.373 38.7775 151.248 39.3605 151.901C44.2037 157.3 51.9005 159.81 58.9276 157.532C59.0098 157.498 59.0534 157.457 59.0959 157.42C65.3509 162.735 72.5874 166.783 80.7465 168.414C81.2323 168.608 81.5689 167.76 80.9639 167.559ZM61.6783 27.5056C61.5405 27.7433 61.449 27.9451 61.3102 28.1866C61.0087 28.4161 60.7034 28.6446 60.4019 28.9186C60.8014 28.4041 61.2417 27.9331 61.6783 27.5056Z" fill="#004AAD"/>
<g filter="url(#filter0_d_22_2797)">
<path d="M42.6852 205.35C41.9052 206.13 40.9602 206.52 39.8502 206.52C38.7402 206.52 37.7802 206.13 36.9702 205.35C36.1902 204.54 35.8002 203.58 35.8002 202.47C35.8002 201.36 36.1902 200.415 36.9702 199.635C37.7802 198.825 38.7402 198.42 39.8502 198.42C40.9602 198.42 41.9052 198.825 42.6852 199.635C43.4952 200.415 43.9002 201.36 43.9002 202.47C43.9002 203.58 43.4952 204.54 42.6852 205.35ZM36.4752 231V208.5H43.2252V231H36.4752ZM50.6396 220.785V214.305H67.7396V220.785H50.6396ZM75.1646 231V198.15H81.9146V231H75.1646ZM95.1341 222.45C95.9141 224.55 97.7141 225.6 100.534 225.6C102.364 225.6 103.804 225.03 104.854 223.89L110.254 226.995C108.034 230.085 104.764 231.63 100.444 231.63C96.6641 231.63 93.6341 230.505 91.3541 228.255C89.1041 226.005 87.9791 223.17 87.9791 219.75C87.9791 216.36 89.0891 213.54 91.3091 211.29C93.5591 209.01 96.4391 207.87 99.9491 207.87C103.219 207.87 105.934 209.01 108.094 211.29C110.284 213.54 111.379 216.36 111.379 219.75C111.379 220.71 111.289 221.61 111.109 222.45H95.1341ZM94.9991 217.41H104.674C104.014 215.04 102.424 213.855 99.9041 213.855C97.2941 213.855 95.6591 215.04 94.9991 217.41ZM133.573 208.5H140.323V231H133.573V228.885C131.983 230.715 129.748 231.63 126.868 231.63C123.898 231.63 121.363 230.49 119.263 228.21C117.163 225.9 116.113 223.08 116.113 219.75C116.113 216.42 117.163 213.615 119.263 211.335C121.363 209.025 123.898 207.87 126.868 207.87C129.748 207.87 131.983 208.785 133.573 210.615V208.5ZM124.348 223.755C125.338 224.745 126.628 225.24 128.218 225.24C129.808 225.24 131.098 224.745 132.088 223.755C133.078 222.765 133.573 221.43 133.573 219.75C133.573 218.07 133.078 216.735 132.088 215.745C131.098 214.755 129.808 214.26 128.218 214.26C126.628 214.26 125.338 214.755 124.348 215.745C123.358 216.735 122.863 218.07 122.863 219.75C122.863 221.43 123.358 222.765 124.348 223.755ZM154.275 212.505C154.695 211.065 155.535 209.97 156.795 209.22C158.085 208.44 159.495 208.05 161.025 208.05V215.7C159.375 215.43 157.83 215.715 156.39 216.555C154.98 217.365 154.275 218.79 154.275 220.83V231H147.525V208.5H154.275V212.505ZM179.615 207.87C182.015 207.87 184.01 208.695 185.6 210.345C187.22 211.995 188.03 214.275 188.03 217.185V231H181.28V218.175C181.28 216.855 180.905 215.85 180.155 215.16C179.435 214.44 178.505 214.08 177.365 214.08C176.075 214.08 175.055 214.47 174.305 215.25C173.555 216.03 173.18 217.185 173.18 218.715V231H166.43V208.5H173.18V210.615C174.53 208.785 176.675 207.87 179.615 207.87Z" fill="#004AAD"/>
</g>
<defs>
<filter id="filter0_d_22_2797" x="30.8002" y="193.15" width="168.23" height="49.48" filterUnits="userSpaceOnUse" color-interpolation-filters="sRGB">
<feFlood flood-opacity="0" result="BackgroundImageFix"/>
<feColorMatrix in="SourceAlpha" type="matrix" values="0 0 0 0 0 0 0 0 0 0 0 0 0 0 0 0 0 0 127 0" result="hardAlpha"/>
<feOffset dx="3" dy="3"/>
<feGaussianBlur stdDeviation="4"/>
<feComposite in2="hardAlpha" operator="out"/>
<feColorMatrix type="matrix" values="0 0 0 0 0.929412 0 0 0 0 0.705882 0 0 0 0 0.14902 0 0 0 1 0"/>
<feBlend mode="normal" in2="BackgroundImageFix" result="effect1_dropShadow_22_2797"/>
<feBlend mode="normal" in="SourceGraphic" in2="effect1_dropShadow_22_2797" result="shape"/>
</filter>
</defs>
</svg>
